{"glyphs":{"0":{"ha":1183,"x_min":14,"x_max":1170,"o":"m 814 423 l 814 490 q 745 634 814 590 q 591 667 688 667 q 369 490 369 667 l 369 423 q 439 279 369 319 q 591 245 496 245 q 657 249 627 245 q 718 265 688 253 q 768 296 747 277 q 801 348 788 315 q 814 423 814 380 m 817 912 q 927 879 877 899 q 1023 824 977 858 q 1101 748 1069 791 q 1151 644 1133 705 q 1170 512 1170 584 l 1170 401 q 981 60 1170 166 q 817 1 906 20 q 591 -22 715 -22 q 366 1 467 -22 q 230 46 291 17 q 119 123 170 76 q 41 240 69 170 q 14 401 14 311 l 14 512 q 203 852 14 747 q 366 912 275 892 q 591 935 467 935 q 817 912 715 935 z "},"1":{"ha":1005,"x_min":14,"x_max":991,"o":"m 336 911 l 692 911 l 692 267 l 991 267 l 991 0 l 14 0 l 14 267 l 336 267 l 336 623 l 58 534 l 58 823 l 336 911 z "},"2":{"ha":1183,"x_min":14,"x_max":1170,"o":"m 1170 630 q 1161 571 1170 599 q 1140 522 1153 544 q 1105 479 1127 500 q 1062 445 1083 459 q 1009 415 1041 430 q 953 391 978 401 q 892 371 928 382 q 832 354 855 360 q 772 339 808 348 q 643 302 691 320 q 575 261 594 284 l 1155 261 l 1155 1 l 14 1 l 14 155 q 25 219 14 189 q 54 275 37 250 q 102 323 72 300 q 162 364 133 347 q 234 399 191 382 q 310 429 277 417 q 393 454 344 441 q 475 476 443 468 q 555 496 507 484 q 760 555 713 534 q 813 607 813 579 q 766 656 813 637 q 628 674 720 674 q 533 669 574 673 q 457 653 492 664 q 402 620 421 642 q 385 568 384 599 l 28 568 q 42 685 28 633 q 83 775 57 737 q 150 841 109 813 q 237 887 191 869 q 346 916 284 905 q 472 930 408 926 q 613 935 535 935 q 849 918 748 935 q 1022 866 949 901 q 1133 771 1095 830 q 1170 630 1170 712 z "},"3":{"ha":1183,"x_min":14,"x_max":1170,"o":"m 1170 655 q 1025 456 1170 524 q 1170 257 1170 389 q 1025 48 1170 117 q 606 -22 880 -22 q 462 -18 526 -22 q 335 -3 397 -14 q 224 26 272 8 q 136 72 177 44 q 69 138 95 100 q 28 227 43 176 q 14 343 14 279 l 370 343 q 381 298 369 317 q 412 271 393 280 q 462 256 432 261 q 525 250 492 252 q 598 248 557 249 q 621 248 613 248 q 767 265 721 248 q 813 318 813 282 q 793 360 813 349 q 644 376 765 374 q 497 376 607 376 l 497 536 q 758 543 711 536 q 810 572 802 550 q 813 594 813 581 q 621 665 813 666 q 460 656 498 663 q 372 591 382 642 q 370 569 370 581 l 14 569 q 28 685 14 633 q 69 774 43 736 q 136 840 95 812 q 224 886 177 868 q 335 915 272 904 q 462 930 397 926 q 606 934 526 934 q 1025 865 880 934 q 1170 655 1170 795 z "},"4":{"ha":1183,"x_min":14,"x_max":1170,"o":"m 369 422 l 680 422 l 680 650 l 369 422 m 680 911 l 1036 911 l 1036 422 l 1170 422 l 1170 155 l 1036 155 l 1036 0 l 680 0 l 680 155 l 14 155 l 14 422 l 680 911 z "},"5":{"ha":1183,"x_min":14,"x_max":1170,"o":"m 406 582 l 497 582 q 616 581 564 582 q 728 576 668 580 q 833 565 788 572 q 927 547 879 559 q 1009 520 975 536 q 1076 481 1044 504 q 1127 430 1107 458 q 1158 363 1147 401 q 1170 279 1170 325 q 1022 58 1170 137 q 606 -22 875 -22 q 462 -18 526 -22 q 335 -3 397 -14 q 224 26 272 8 q 136 72 177 44 q 69 138 95 100 q 28 227 43 176 q 14 343 14 279 l 370 343 q 381 298 369 317 q 412 271 393 280 q 462 256 432 261 q 525 250 492 252 q 598 248 557 249 q 621 248 613 248 q 767 265 721 248 q 813 318 813 282 q 803 359 813 342 q 761 391 792 376 q 664 414 730 406 q 497 421 598 421 l 14 421 l 14 423 l 125 912 l 1103 912 l 1103 667 l 425 667 l 406 582 z "},"6":{"ha":1183,"x_min":14,"x_max":1170,"o":"m 851 311 q 833 345 851 330 q 689 387 785 379 q 496 389 593 396 q 353 372 399 383 l 332 367 l 332 279 q 336 265 332 272 q 356 247 340 258 q 400 228 373 236 q 482 215 427 220 q 610 209 537 209 q 657 210 633 209 q 719 218 682 212 q 783 234 756 224 q 831 263 810 243 q 851 311 851 283 m 1092 468 q 1170 304 1170 402 q 1163 239 1170 271 q 1139 175 1157 208 q 1095 114 1122 142 q 1023 60 1067 85 q 922 17 979 35 q 784 -11 865 -1 q 607 -22 704 -22 q 435 -16 510 -22 q 291 5 361 -10 q 172 46 221 20 q 86 111 123 72 q 32 207 50 150 q 14 337 14 263 l 14 553 q 32 683 14 627 q 86 779 50 740 q 172 845 123 819 q 291 886 221 871 q 435 906 361 901 q 607 912 510 912 l 1100 912 l 1100 685 l 498 685 q 450 682 474 685 q 397 669 427 678 q 349 639 368 661 q 331 587 331 618 l 331 564 l 363 570 q 484 581 397 576 q 688 583 576 587 q 911 551 804 577 q 1092 468 1020 526 z "},"7":{"ha":1094,"x_min":14,"x_max":1080,"o":"m 703 645 l 14 645 l 14 911 l 1080 911 l 1080 645 l 570 0 l 125 0 l 703 645 z "},"8":{"ha":1183,"x_min":14,"x_max":1170,"o":"m 591 231 q 803 318 803 231 q 784 363 803 345 q 718 392 766 381 q 591 403 669 403 q 428 381 477 403 q 380 318 380 359 q 429 253 380 276 q 591 231 478 231 m 696 701 q 677 705 696 701 q 591 709 659 709 q 486 701 524 709 q 435 682 448 694 q 422 649 422 669 q 435 616 422 628 q 486 596 448 604 q 591 589 524 589 q 698 596 660 589 q 748 616 736 604 q 761 649 761 628 q 748 682 761 669 q 696 701 734 694 m 957 513 q 1119 424 1069 483 q 1170 272 1170 364 q 1153 168 1170 213 q 1095 86 1135 123 q 988 26 1055 50 q 823 -9 922 3 q 591 -22 724 -22 q 312 -3 425 -22 q 134 54 199 15 q 41 145 68 92 q 14 272 14 197 q 64 424 14 365 q 227 513 114 483 q 112 694 112 570 q 223 877 112 819 q 591 934 334 934 q 871 907 765 934 q 1024 829 977 881 q 1071 694 1071 777 q 957 513 1071 572 z "},"9":{"ha":1183,"x_min":14,"x_max":1170,"o":"m 332 602 q 351 568 332 583 q 494 525 397 534 q 687 523 590 517 q 831 541 787 530 l 852 545 l 851 634 q 847 648 851 641 q 827 665 844 654 q 783 684 811 676 q 701 698 755 692 q 572 704 646 704 q 526 703 550 704 q 464 695 501 701 q 400 679 427 689 q 352 649 372 669 q 332 602 332 629 m 91 445 q 14 608 14 511 q 20 673 14 642 q 44 738 26 704 q 88 799 61 771 q 159 853 115 827 q 261 896 203 878 q 399 924 318 913 q 576 935 479 935 q 725 930 659 935 q 854 916 791 926 q 964 888 917 905 q 1051 843 1011 870 q 1117 778 1091 815 q 1156 689 1142 740 q 1170 575 1170 639 l 1170 359 q 1156 245 1170 296 q 1117 157 1142 195 q 1051 93 1091 120 q 964 47 1011 65 q 854 19 917 30 q 725 5 791 9 q 576 1 659 1 l 83 1 l 83 228 l 685 228 q 733 231 709 228 q 786 243 756 235 q 833 274 815 252 q 852 326 852 295 l 852 349 l 820 343 q 699 331 789 337 q 495 330 607 325 q 271 361 384 334 q 91 445 163 387 z "},"§":{"ha":586,"x_min":14,"x_max":572,"o":"m 572 0 l 14 0 l 14 972 l 572 972 l 572 0 m 47 939 l 47 34 l 538 34 l 538 939 l 47 939 m 149 719 l 149 775 q 192 807 171 795 q 281 831 234 831 q 395 795 354 831 q 437 708 437 760 q 421 643 437 677 q 362 555 406 609 q 295 466 320 502 q 271 396 271 430 q 288 302 271 372 l 233 302 q 207 407 207 374 q 262 553 207 456 q 317 701 317 649 q 299 761 317 741 q 251 781 281 781 q 217 772 232 781 q 149 719 201 763 m 203 224 l 243 264 q 262 273 252 273 q 283 263 271 273 l 321 222 q 326 210 326 215 q 319 195 326 202 l 281 153 q 262 142 270 142 q 243 151 251 142 l 201 199 q 196 210 196 204 q 203 224 196 217 z "},"¨":{"ha":586,"x_min":14,"x_max":572,"o":"m 572 0 l 14 0 l 14 972 l 572 972 l 572 0 m 47 939 l 47 34 l 538 34 l 538 939 l 47 939 m 149 719 l 149 775 q 192 807 171 795 q 281 831 234 831 q 395 795 354 831 q 437 708 437 760 q 421 643 437 677 q 362 555 406 609 q 295 466 320 502 q 271 396 271 430 q 288 302 271 372 l 233 302 q 207 407 207 374 q 262 553 207 456 q 317 701 317 649 q 299 761 317 741 q 251 781 281 781 q 217 772 232 781 q 149 719 201 763 m 203 224 l 243 264 q 262 273 252 273 q 283 263 271 273 l 321 222 q 326 210 326 215 q 319 195 326 202 l 281 153 q 262 142 270 142 q 243 151 251 142 l 201 199 q 196 210 196 204 q 203 224 196 217 z "},"ª":{"ha":586,"x_min":14,"x_max":572,"o":"m 572 0 l 14 0 l 14 972 l 572 972 l 572 0 m 47 939 l 47 34 l 538 34 l 538 939 l 47 939 m 149 719 l 149 775 q 192 807 171 795 q 281 831 234 831 q 395 795 354 831 q 437 708 437 760 q 421 643 437 677 q 362 555 406 609 q 295 466 320 502 q 271 396 271 430 q 288 302 271 372 l 233 302 q 207 407 207 374 q 262 553 207 456 q 317 701 317 649 q 299 761 317 741 q 251 781 281 781 q 217 772 232 781 q 149 719 201 763 m 203 224 l 243 264 q 262 273 252 273 q 283 263 271 273 l 321 222 q 326 210 326 215 q 319 195 326 202 l 281 153 q 262 142 270 142 q 243 151 251 142 l 201 199 q 196 210 196 204 q 203 224 196 217 z "},"«":{"ha":586,"x_min":14,"x_max":572,"o":"m 572 0 l 14 0 l 14 972 l 572 972 l 572 0 m 47 939 l 47 34 l 538 34 l 538 939 l 47 939 m 149 719 l 149 775 q 192 807 171 795 q 281 831 234 831 q 395 795 354 831 q 437 708 437 760 q 421 643 437 677 q 362 555 406 609 q 295 466 320 502 q 271 396 271 430 q 288 302 271 372 l 233 302 q 207 407 207 374 q 262 553 207 456 q 317 701 317 649 q 299 761 317 741 q 251 781 281 781 q 217 772 232 781 q 149 719 201 763 m 203 224 l 243 264 q 262 273 252 273 q 283 263 271 273 l 321 222 q 326 210 326 215 q 319 195 326 202 l 281 153 q 262 142 270 142 q 243 151 251 142 l 201 199 q 196 210 196 204 q 203 224 196 217 z "},"¬":{"ha":586,"x_min":14,"x_max":572,"o":"m 572 0 l 14 0 l 14 972 l 572 972 l 572 0 m 47 939 l 47 34 l 538 34 l 538 939 l 47 939 m 149 719 l 149 775 q 192 807 171 795 q 281 831 234 831 q 395 795 354 831 q 437 708 437 760 q 421 643 437 677 q 362 555 406 609 q 295 466 320 502 q 271 396 271 430 q 288 302 271 372 l 233 302 q 207 407 207 374 q 262 553 207 456 q 317 701 317 649 q 299 761 317 741 q 251 781 281 781 q 217 772 232 781 q 149 719 201 763 m 203 224 l 243 264 q 262 273 252 273 q 283 263 271 273 l 321 222 q 326 210 326 215 q 319 195 326 202 l 281 153 q 262 142 270 142 q 243 151 251 142 l 201 199 q 196 210 196 204 q 203 224 196 217 z "},"¯":{"ha":586,"x_min":14,"x_max":572,"o":"m 572 0 l 14 0 l 14 972 l 572 972 l 572 0 m 47 939 l 47 34 l 538 34 l 538 939 l 47 939 m 149 719 l 149 775 q 192 807 171 795 q 281 831 234 831 q 395 795 354 831 q 437 708 437 760 q 421 643 437 677 q 362 555 406 609 q 295 466 320 502 q 271 396 271 430 q 288 302 271 372 l 233 302 q 207 407 207 374 q 262 553 207 456 q 317 701 317 649 q 299 761 317 741 q 251 781 281 781 q 217 772 232 781 q 149 719 201 763 m 203 224 l 243 264 q 262 273 252 273 q 283 263 271 273 l 321 222 q 326 210 326 215 q 319 195 326 202 l 281 153 q 262 142 270 142 q 243 151 251 142 l 201 199 q 196 210 196 204 q 203 224 196 217 z "},"°":{"ha":586,"x_min":14,"x_max":572,"o":"m 572 0 l 14 0 l 14 972 l 572 972 l 572 0 m 47 939 l 47 34 l 538 34 l 538 939 l 47 939 m 149 719 l 149 775 q 192 807 171 795 q 281 831 234 831 q 395 795 354 831 q 437 708 437 760 q 421 643 437 677 q 362 555 406 609 q 295 466 320 502 q 271 396 271 430 q 288 302 271 372 l 233 302 q 207 407 207 374 q 262 553 207 456 q 317 701 317 649 q 299 761 317 741 q 251 781 281 781 q 217 772 232 781 q 149 719 201 763 m 203 224 l 243 264 q 262 273 252 273 q 283 263 271 273 l 321 222 q 326 210 326 215 q 319 195 326 202 l 281 153 q 262 142 270 142 q 243 151 251 142 l 201 199 q 196 210 196 204 q 203 224 196 217 z "}," ":{"ha":678,"x_min":0,"x_max":0,"o":""}," ":{"ha":678,"x_min":0,"x_max":0,"o":""},"!":{"ha":382,"x_min":14,"x_max":369,"o":"m 14 1000 l 369 1000 l 369 400 l 14 400 l 14 1000 m 14 267 l 369 267 l 369 0 l 14 0 l 14 267 z "},"\"":{"ha":712,"x_min":14,"x_max":699,"o":"m 632 489 l 454 489 l 387 1000 l 699 1000 l 632 489 m 258 489 l 80 489 l 14 1000 l 325 1000 l 258 489 z "},"#":{"ha":1522,"x_min":14,"x_max":1508,"o":"m 903 578 l 658 578 l 620 422 l 864 422 l 903 578 m 517 0 l 183 0 l 221 155 l 14 155 l 14 422 l 286 422 l 324 578 l 102 578 l 102 845 l 389 845 l 428 1000 l 761 1000 l 723 845 l 968 845 l 1006 1000 l 1339 1000 l 1301 845 l 1508 845 l 1508 578 l 1236 578 l 1198 422 l 1419 422 l 1419 155 l 1133 155 l 1095 0 l 761 0 l 799 155 l 555 155 l 517 0 z "},"$":{"ha":1227,"x_min":14,"x_max":1214,"o":"m 376 620 q 401 594 376 600 q 514 584 427 587 l 514 700 q 407 670 438 692 q 376 620 376 647 m 865 313 q 854 337 865 330 q 812 350 843 345 q 714 357 781 355 l 714 231 q 791 245 760 235 q 838 268 823 255 q 859 291 852 280 q 865 313 865 302 m 14 317 l 363 317 q 514 232 363 250 l 514 365 q 140 438 253 378 q 27 635 27 498 q 152 838 27 765 q 514 923 276 911 l 514 1065 l 714 1065 l 714 922 q 1196 627 1196 899 l 847 627 q 714 694 847 673 l 714 576 q 860 566 798 572 q 982 549 922 560 q 1082 519 1042 537 q 1153 474 1122 500 q 1199 409 1184 447 q 1214 321 1214 370 q 1088 90 1214 165 q 714 6 963 16 l 714 -136 l 514 -136 l 514 5 q 338 20 413 9 q 199 54 262 31 q 96 111 136 76 q 35 197 56 146 q 14 317 14 249 z "},"%":{"ha":1908,"x_min":14,"x_max":1894,"o":"m 609 0 l 965 1000 l 1298 1000 l 943 0 l 609 0 m 1412 321 l 1412 279 q 1446 206 1412 227 q 1531 188 1474 188 q 1621 210 1592 188 q 1650 279 1650 232 l 1650 321 q 1616 394 1650 374 q 1531 412 1588 412 q 1440 390 1469 412 q 1412 321 1412 368 m 1390 14 q 1168 265 1168 64 l 1168 335 q 1286 549 1168 484 q 1390 587 1336 575 q 1531 600 1463 600 q 1672 587 1599 600 q 1758 558 1720 576 q 1828 510 1796 539 q 1877 436 1860 480 q 1894 335 1894 391 l 1894 265 q 1775 52 1894 117 q 1672 14 1726 25 q 1531 0 1599 0 q 1390 14 1463 0 m 258 721 l 258 680 q 292 606 258 627 q 376 588 320 588 q 467 610 438 588 q 496 680 496 632 l 496 721 q 461 794 496 774 q 376 812 433 812 q 286 790 315 812 q 258 721 258 768 m 132 949 q 235 987 180 975 q 376 1000 309 1000 q 518 987 444 1000 q 739 735 741 936 l 739 665 q 621 452 739 516 q 518 414 572 425 q 376 400 444 400 q 235 414 309 400 q 14 665 14 463 l 14 735 q 132 949 14 884 z "},"&":{"ha":1227,"x_min":14,"x_max":1214,"o":"m 781 317 l 781 402 l 547 402 q 421 392 469 402 q 354 363 373 381 q 336 317 336 345 q 384 253 336 275 q 547 230 433 230 q 722 254 663 230 q 781 317 781 277 m 1080 402 l 1080 271 q 1068 196 1080 233 q 1021 118 1057 159 q 929 47 985 77 q 774 -2 872 18 q 547 -22 675 -22 q 377 -12 454 -22 q 245 15 299 -2 q 149 57 191 33 q 82 107 107 81 q 42 163 58 133 q 20 219 26 193 q 14 271 14 245 q 16 326 14 302 q 28 380 18 349 q 56 435 39 412 q 105 479 73 458 q 182 513 137 500 q 68 693 68 570 q 178 876 68 819 q 547 934 289 934 q 758 920 669 934 q 962 844 899 900 q 1026 693 1026 788 q 1025 663 1026 682 l 736 663 q 729 682 732 675 q 712 699 725 688 q 682 715 700 709 q 629 725 663 721 q 547 730 594 730 q 378 648 378 730 q 385 621 378 633 q 410 598 392 609 q 462 583 427 588 q 547 577 496 577 l 758 577 l 1214 577 l 1214 402 l 1080 402 z "},"'":{"ha":338,"x_min":14,"x_max":325,"o":"m 258 489 l 80 489 l 14 1000 l 325 1000 l 258 489 z "},"(":{"ha":627,"x_min":12,"x_max":614,"o":"m 614 -137 l 325 -137 q 105 -46 197 -138 q 14 174 12 47 l 14 752 q 105 972 12 880 q 325 1063 197 1065 l 614 1063 l 614 797 l 436 797 q 357 764 390 797 q 325 686 325 732 l 325 241 q 357 162 325 195 q 436 130 390 130 l 614 130 l 614 -137 z "},")":{"ha":627,"x_min":14,"x_max":615,"o":"m 302 -137 l 14 -137 l 14 130 l 191 130 q 270 162 237 130 q 302 241 302 195 l 302 686 q 270 764 302 732 q 191 797 237 797 l 14 797 l 14 1063 l 302 1063 q 523 972 430 1065 q 614 752 615 880 l 614 174 q 523 -46 615 47 q 302 -137 430 -138 z "},"*":{"ha":737,"x_min":14,"x_max":724,"o":"m 272 326 l 74 469 l 244 627 l 14 654 l 89 886 l 292 772 l 246 1000 l 491 1000 l 445 772 l 648 886 l 724 654 l 492 627 l 664 469 l 466 326 l 368 536 l 272 326 z "},"+":{"ha":1094,"x_min":14,"x_max":1080,"o":"m 391 903 l 703 903 l 703 591 l 1080 591 l 1080 325 l 703 325 l 703 14 l 391 14 l 391 325 l 14 325 l 14 591 l 391 591 l 391 903 z "},",":{"ha":382,"x_min":14,"x_max":369,"o":"m 214 -267 l 80 -267 l 169 0 l 14 0 l 14 267 l 369 267 l 369 0 l 214 -267 z "},"-":{"ha":1027,"x_min":14,"x_max":1014,"o":"m 14 589 l 1014 589 l 1014 323 l 14 323 l 14 589 z "},"­":{"ha":1027,"x_min":14,"x_max":1014,"o":"m 14 589 l 1014 589 l 1014 323 l 14 323 l 14 589 z "},".":{"ha":382,"x_min":14,"x_max":369,"o":"m 14 267 l 369 267 l 369 0 l 14 0 l 14 267 z "},"/":{"ha":783,"x_min":14,"x_max":770,"o":"m 369 -35 l 14 -35 l 414 965 l 770 965 l 369 -35 z "},":":{"ha":382,"x_min":14,"x_max":369,"o":"m 14 756 l 369 756 l 369 489 l 14 489 l 14 756 m 14 267 l 369 267 l 369 0 l 14 0 l 14 267 z "},";":{"ha":382,"x_min":14,"x_max":369,"o":"m 14 756 l 369 756 l 369 490 l 14 490 l 14 756 m 214 -267 l 80 -267 l 169 0 l 14 0 l 14 267 l 369 267 l 369 0 l 214 -267 z "},"<":{"ha":1094,"x_min":14,"x_max":1080,"o":"m 14 589 l 1080 856 l 1080 589 l 547 456 l 1080 323 l 1080 56 l 14 323 l 14 589 z "},"=":{"ha":1094,"x_min":14,"x_max":1080,"o":"m 14 800 l 1080 800 l 1080 533 l 14 533 l 14 800 m 14 379 l 1080 379 l 1080 113 l 14 113 l 14 379 z "},">":{"ha":1094,"x_min":14,"x_max":1080,"o":"m 14 589 l 14 856 l 1080 589 l 1080 323 l 14 56 l 14 323 l 547 456 l 14 589 z "},"?":{"ha":1116,"x_min":14,"x_max":1103,"o":"m 302 701 l 302 678 l 14 678 q 14 701 14 686 q 74 903 14 834 q 186 973 111 945 q 391 1000 262 1000 l 725 1000 q 854 991 797 1000 q 950 965 911 981 q 1018 925 989 949 q 1062 877 1046 901 q 1088 820 1078 852 q 1100 761 1097 788 q 1103 701 1103 734 q 1097 647 1103 671 q 1082 606 1090 623 q 1057 575 1074 589 q 1027 552 1040 560 q 990 535 1015 544 q 952 523 965 526 q 911 512 939 519 q 871 502 886 507 q 833 490 855 498 q 798 474 812 482 q 769 452 785 465 q 745 422 754 439 q 731 384 736 406 q 725 334 725 361 l 369 334 q 380 425 369 383 q 410 495 392 466 q 456 547 427 524 q 510 585 484 571 q 572 611 535 599 q 633 629 608 623 q 693 641 658 634 q 742 651 724 647 q 778 663 760 656 q 805 679 797 670 q 814 701 814 688 q 783 757 814 743 q 669 771 753 771 l 447 771 q 333 758 364 771 q 302 701 302 745 m 725 0 l 369 0 l 369 222 l 725 222 l 725 0 z "},"@":{"ha":1294,"x_min":14,"x_max":1280,"o":"m 947 444 l 954 452 l 947 460 q 867 525 913 500 q 764 548 824 548 q 670 537 701 548 q 629 508 638 527 q 620 452 620 490 q 644 379 620 399 q 764 357 669 357 q 947 444 871 357 m 1280 734 l 1280 163 l 1014 163 l 1014 294 l 996 273 q 975 252 993 270 q 872 184 930 210 q 716 152 798 152 q 431 241 509 152 q 369 452 369 311 q 431 664 369 593 q 716 753 509 753 q 975 653 864 753 q 996 631 993 635 l 1014 611 l 1014 697 q 889 836 1014 794 q 767 858 834 853 q 659 863 695 863 q 576 859 620 863 q 478 843 532 855 q 381 812 423 831 q 309 761 338 793 q 280 686 280 728 l 280 219 q 307 144 280 177 q 373 93 334 111 q 464 62 412 74 q 556 45 515 50 q 636 41 598 41 l 659 41 l 659 -203 l 636 -203 q 427 -187 536 -203 q 224 -132 318 -171 q 14 186 14 -45 l 14 719 q 224 1037 14 949 q 439 1092 319 1076 q 659 1108 557 1108 q 777 1105 724 1108 q 897 1093 830 1103 q 1015 1068 963 1084 q 1118 1024 1066 1053 q 1203 957 1169 996 q 1259 862 1238 919 q 1280 734 1280 805 z "},"A":{"ha":1428,"x_min":14,"x_max":1414,"o":"m 714 647 l 589 378 l 839 378 l 714 647 m 14 -1 l 503 911 l 925 911 l 1414 -1 l 1014 -1 l 942 155 l 486 155 l 414 -1 l 14 -1 z "},"B":{"ha":1250,"x_min":14,"x_max":1238,"o":"m 369 216 l 847 216 q 886 235 869 216 q 903 277 903 254 q 886 320 903 301 q 847 338 869 338 l 369 338 l 369 216 m 781 694 l 369 694 l 369 572 l 781 572 q 820 591 803 572 q 836 633 836 610 q 820 676 836 657 q 781 694 803 694 m 1064 471 q 1190 387 1143 445 q 1236 244 1236 328 q 1154 64 1238 130 q 947 -1 1071 -1 l 14 -1 l 14 911 l 880 911 q 992 895 940 911 q 1085 849 1045 879 q 1148 771 1125 819 q 1170 667 1171 724 q 1142 552 1170 602 q 1064 471 1114 503 z "},"C":{"ha":1270,"x_min":13,"x_max":1257,"o":"m 892 378 l 1257 378 q 636 -22 1227 -22 q 440 -9 529 -22 q 270 36 351 4 q 133 117 189 68 q 45 244 78 167 q 14 423 13 322 l 14 490 q 45 668 13 590 q 133 795 78 745 q 270 876 189 844 q 439 921 351 908 q 636 935 528 934 q 1257 534 1227 933 l 892 534 q 804 621 869 597 q 636 645 739 645 q 552 640 588 644 q 479 625 515 636 q 420 594 444 613 q 383 543 397 575 q 370 467 369 511 l 370 445 q 383 370 369 401 q 420 319 397 338 q 479 288 444 300 q 552 272 515 276 q 636 267 589 268 q 804 292 739 267 q 892 378 869 316 z "},"D":{"ha":1272,"x_min":14,"x_max":1259,"o":"m 903 455 q 864 574 903 527 q 758 622 825 622 l 369 622 l 369 288 l 758 288 q 864 336 825 288 q 903 455 903 384 m 14 911 l 825 911 q 1047 850 947 912 q 1204 684 1148 789 q 1259 455 1259 578 q 1204 227 1259 332 q 1047 60 1148 122 q 825 -1 947 -2 l 14 -1 l 14 911 z "},"E":{"ha":1094,"x_min":14,"x_max":1080,"o":"m 14 -1 l 14 911 l 1080 911 l 1080 677 l 369 677 l 369 561 l 1080 561 l 1080 350 l 369 350 l 369 233 l 1080 233 l 1080 -1 l 14 -1 z "},"F":{"ha":1139,"x_min":14,"x_max":1125,"o":"m 14 -1 l 14 911 l 1125 911 l 1125 622 l 369 622 l 369 511 l 1036 511 l 1036 244 l 369 244 l 369 -1 l 14 -1 z "},"G":{"ha":1266,"x_min":13,"x_max":1253,"o":"m 633 345 l 633 501 l 1253 501 l 1253 -22 l 1075 -22 l 1057 120 q 872 12 983 46 q 636 -22 762 -22 q 439 -8 528 -21 q 269 37 350 5 q 133 118 188 68 q 45 245 77 168 q 14 423 13 323 l 14 490 q 30 623 14 562 q 76 729 46 684 q 150 809 106 774 q 246 868 194 844 q 362 906 298 891 q 493 928 427 922 q 636 935 560 935 q 1253 568 1200 935 l 875 568 q 778 629 842 613 q 636 646 715 646 q 552 641 588 645 q 479 625 515 637 q 420 594 443 613 q 382 543 397 575 q 369 468 368 511 l 369 446 q 382 370 368 402 q 420 319 397 338 q 479 288 443 300 q 552 273 515 277 q 636 268 588 269 q 819 282 755 268 q 920 345 882 297 l 633 345 z "},"H":{"ha":1272,"x_min":14,"x_max":1259,"o":"m 903 312 l 369 312 l 369 1 l 14 1 l 14 912 l 369 912 l 369 601 l 903 601 l 903 912 l 1259 912 l 1259 1 l 903 1 l 903 312 z "},"I":{"ha":382,"x_min":14,"x_max":369,"o":"m 14 912 l 369 912 l 369 1 l 14 1 l 14 912 z "},"J":{"ha":1272,"x_min":13,"x_max":1258,"o":"m 903 445 l 903 911 l 1258 911 l 1258 422 q 635 -22 1258 -22 q 438 -9 528 -22 q 269 36 349 4 q 133 117 188 68 q 45 244 77 167 q 14 422 13 322 l 14 534 l 369 534 l 369 445 q 382 369 368 401 q 420 318 397 337 q 479 288 443 299 q 551 272 515 276 q 635 267 587 268 q 720 272 684 268 q 792 288 756 276 q 852 318 829 299 q 889 369 875 337 q 903 445 903 401 z "},"K":{"ha":1339,"x_min":14,"x_max":1325,"o":"m 524 312 l 369 312 l 369 1 l 14 1 l 14 912 l 369 912 l 369 601 l 524 601 l 859 912 l 1325 912 l 852 456 l 1325 1 l 859 1 l 524 312 z "},"L":{"ha":1094,"x_min":14,"x_max":1080,"o":"m 14 912 l 369 912 l 369 290 l 1080 290 l 1080 1 l 14 1 l 14 912 z "},"M":{"ha":1628,"x_min":14,"x_max":1614,"o":"m 14 1 l 14 912 l 458 912 l 814 456 l 1170 912 l 1614 912 l 1614 1 l 1259 1 l 1259 487 l 903 1 l 725 1 l 369 487 l 369 1 l 14 1 z "},"N":{"ha":1272,"x_min":14,"x_max":1259,"o":"m 903 429 l 903 912 l 1259 912 l 1259 1 l 859 1 l 369 557 l 369 1 l 14 1 l 14 912 l 503 912 l 903 429 z "},"O":{"ha":1272,"x_min":14,"x_max":1259,"o":"m 636 935 q 1258 490 1258 935 l 1258 423 q 1226 245 1259 323 q 1139 118 1194 168 q 1003 36 1084 68 q 833 -8 922 5 q 636 -22 744 -22 q 493 -15 560 -22 q 362 6 427 -9 q 246 45 298 22 q 150 104 194 68 q 76 184 106 139 q 30 290 46 230 q 14 423 14 351 l 14 490 q 30 623 14 562 q 76 729 46 684 q 150 809 106 774 q 246 868 194 844 q 362 906 298 891 q 493 928 427 922 q 636 935 560 935 m 903 446 l 903 468 q 889 543 903 511 q 852 594 875 575 q 793 625 829 613 q 720 641 757 637 q 636 646 684 645 q 552 641 588 645 q 479 625 515 637 q 420 594 443 613 q 382 543 397 575 q 369 468 368 511 l 369 446 q 382 370 368 402 q 420 319 397 338 q 479 288 443 300 q 552 272 515 276 q 636 267 588 268 q 720 272 684 268 q 793 288 757 276 q 852 319 829 300 q 889 370 875 338 q 903 446 903 402 z "},"P":{"ha":1250,"x_min":14,"x_max":1238,"o":"m 369 489 l 803 489 q 857 511 835 489 q 880 566 880 534 q 857 621 880 599 q 803 644 835 644 l 369 644 l 369 489 m 14 911 l 892 911 q 1064 865 984 911 q 1191 739 1144 819 q 1236 566 1238 659 q 1191 394 1238 474 q 1064 267 1144 314 q 892 222 984 220 l 369 222 l 369 -1 l 14 -1 l 14 911 z "},"Q":{"ha":1272,"x_min":13,"x_max":1259,"o":"m 1259 489 l 1259 422 q 1073 69 1259 178 l 1259 -200 l 880 -200 l 766 -17 q 636 -22 699 -22 q 439 -9 528 -22 q 270 36 351 4 q 133 117 189 67 q 45 244 78 166 q 14 422 13 321 l 14 489 q 45 667 13 589 q 133 794 78 745 q 270 876 189 844 q 439 920 351 907 q 636 934 528 933 q 833 920 744 933 q 1003 876 922 907 q 1139 794 1084 844 q 1227 667 1194 745 q 1259 489 1259 589 m 636 267 q 720 271 684 267 q 793 287 757 275 q 852 318 829 299 q 889 369 875 337 q 903 444 903 401 l 903 467 q 889 542 903 510 q 852 593 875 574 q 793 624 829 612 q 721 640 757 635 q 636 644 684 644 q 552 640 588 644 q 479 624 515 635 q 420 593 443 612 q 382 542 397 574 q 369 467 368 510 l 369 444 q 382 369 368 401 q 420 318 397 337 q 479 287 443 299 q 552 271 515 275 q 636 267 588 267 z "},"R":{"ha":1250,"x_min":14,"x_max":1238,"o":"m 14 911 l 892 911 q 1064 866 984 912 q 1191 739 1144 819 q 1236 567 1238 659 q 1181 380 1236 464 q 1038 256 1127 297 l 1236 0 l 858 0 l 686 222 l 369 222 l 369 0 l 14 0 l 14 911 m 802 645 l 369 645 l 369 490 l 802 490 q 857 512 835 490 q 880 567 880 535 q 858 622 880 600 q 802 645 835 645 z "},"S":{"ha":1264,"x_min":13,"x_max":1251,"o":"m 386 612 q 446 575 386 585 q 640 559 505 566 q 966 528 861 548 q 1246 340 1218 480 q 1251 300 1251 321 q 1216 167 1251 224 q 1126 75 1182 110 q 987 17 1069 39 q 820 -14 905 -5 q 632 -22 734 -22 q 498 -19 557 -22 q 376 -7 439 -16 q 265 16 313 2 q 171 55 217 31 q 95 113 125 79 q 42 194 64 146 q 14 300 21 241 l 386 300 q 477 231 414 251 q 632 212 540 212 q 718 216 677 212 q 796 229 758 220 q 856 257 833 239 q 878 300 878 275 q 870 318 878 310 q 843 331 862 326 q 806 339 825 336 q 753 346 787 342 q 694 350 719 349 q 625 353 669 351 q 298 385 403 365 q 18 572 46 433 q 14 612 14 591 q 632 935 14 935 q 766 931 707 934 q 888 919 824 928 q 1000 897 952 911 q 1093 858 1047 882 q 1170 800 1139 833 q 1222 719 1200 767 q 1251 612 1244 671 l 878 612 q 788 681 850 662 q 632 701 726 701 q 546 697 586 701 q 468 684 507 693 q 408 656 430 674 q 386 612 386 637 z "},"T":{"ha":1227,"x_min":14,"x_max":1214,"o":"m 791 -1 l 436 -1 l 436 622 l 14 622 l 14 911 l 1214 911 l 1214 622 l 791 622 l 791 -1 z "},"U":{"ha":1272,"x_min":13,"x_max":1259,"o":"m 903 445 l 903 912 l 1259 912 l 1259 422 q 1227 244 1259 322 q 1139 117 1194 167 q 1003 36 1084 68 q 832 -9 922 4 q 636 -22 743 -22 q 440 -9 529 -22 q 270 36 351 4 q 133 117 189 68 q 45 244 78 167 q 14 422 13 322 l 14 912 l 369 912 l 369 445 q 382 369 368 401 q 420 318 397 337 q 479 288 443 299 q 552 272 515 276 q 636 267 588 268 q 721 272 684 268 q 793 288 757 276 q 852 318 829 299 q 889 369 875 337 q 903 445 903 401 z "},"V":{"ha":1383,"x_min":14,"x_max":1370,"o":"m 414 911 l 692 278 l 970 911 l 1370 911 l 903 -1 l 480 -1 l 14 911 l 414 911 z "},"W":{"ha":2072,"x_min":14,"x_max":2059,"o":"m 1447 334 l 1659 911 l 2059 911 l 1659 -1 l 1236 -1 l 1036 455 l 836 -1 l 414 -1 l 14 911 l 414 911 l 625 334 l 836 911 l 1236 911 l 1447 334 z "},"X":{"ha":1428,"x_min":14,"x_max":1414,"o":"m 714 645 l 970 911 l 1414 911 l 936 455 l 1414 -1 l 970 -1 l 714 266 l 458 -1 l 14 -1 l 492 455 l 14 911 l 458 911 l 714 645 z "},"Y":{"ha":1405,"x_min":14,"x_max":1392,"o":"m 436 911 l 703 584 l 970 911 l 1392 911 l 880 311 l 880 -1 l 525 -1 l 525 311 l 14 911 l 436 911 z "},"Z":{"ha":1205,"x_min":14,"x_max":1192,"o":"m 614 622 l 14 622 l 14 911 l 1192 911 l 1192 622 l 570 289 l 1192 289 l 1192 -1 l 14 -1 l 14 289 l 614 622 z "},"[":{"ha":627,"x_min":14,"x_max":614,"o":"m 325 131 l 614 131 l 614 -136 l 14 -136 l 14 1065 l 614 1065 l 614 798 l 325 798 l 325 131 z "},"\\":{"ha":783,"x_min":14,"x_max":770,"o":"m 369 965 l 770 -35 l 414 -35 l 14 965 l 369 965 z "},"]":{"ha":627,"x_min":14,"x_max":614,"o":"m 14 -136 l 14 131 l 302 131 l 302 798 l 14 798 l 14 1065 l 614 1065 l 614 -136 l 14 -136 z "},"_":{"ha":1428,"x_min":14,"x_max":1414,"o":"m 14 1 l 1414 1 l 1414 -244 l 14 -244 l 14 1 z "},"a":{"ha":1428,"x_min":14,"x_max":1414,"o":"m 714 647 l 589 378 l 839 378 l 714 647 m 14 -1 l 503 911 l 925 911 l 1414 -1 l 1014 -1 l 942 155 l 486 155 l 414 -1 l 14 -1 z "},"b":{"ha":1250,"x_min":14,"x_max":1238,"o":"m 369 216 l 847 216 q 886 235 869 216 q 903 277 903 254 q 886 320 903 301 q 847 338 869 338 l 369 338 l 369 216 m 781 694 l 369 694 l 369 572 l 781 572 q 820 591 803 572 q 836 633 836 610 q 820 676 836 657 q 781 694 803 694 m 1064 471 q 1190 387 1143 445 q 1236 244 1236 328 q 1154 64 1238 130 q 947 -1 1071 -1 l 14 -1 l 14 911 l 880 911 q 992 895 940 911 q 1085 849 1045 879 q 1148 771 1125 819 q 1170 667 1171 724 q 1142 552 1170 602 q 1064 471 1114 503 z "},"c":{"ha":1270,"x_min":13,"x_max":1257,"o":"m 892 378 l 1257 378 q 636 -22 1227 -22 q 440 -9 529 -22 q 270 36 351 4 q 133 117 189 68 q 45 244 78 167 q 14 423 13 322 l 14 490 q 45 668 13 590 q 133 795 78 745 q 270 876 189 844 q 439 921 351 908 q 636 935 528 934 q 1257 534 1227 933 l 892 534 q 804 621 869 597 q 636 645 739 645 q 552 640 588 644 q 479 625 515 636 q 420 594 444 613 q 383 543 397 575 q 370 467 369 511 l 370 445 q 383 370 369 401 q 420 319 397 338 q 479 288 444 300 q 552 272 515 276 q 636 267 589 268 q 804 292 739 267 q 892 378 869 316 z "},"d":{"ha":1272,"x_min":14,"x_max":1259,"o":"m 903 455 q 864 574 903 527 q 758 622 825 622 l 369 622 l 369 288 l 758 288 q 864 336 825 288 q 903 455 903 384 m 14 911 l 825 911 q 1047 850 947 912 q 1204 684 1148 789 q 1259 455 1259 578 q 1204 227 1259 332 q 1047 60 1148 122 q 825 -1 947 -2 l 14 -1 l 14 911 z "},"e":{"ha":1094,"x_min":14,"x_max":1080,"o":"m 14 -1 l 14 911 l 1080 911 l 1080 677 l 369 677 l 369 561 l 1080 561 l 1080 350 l 369 350 l 369 233 l 1080 233 l 1080 -1 l 14 -1 z "},"f":{"ha":1139,"x_min":14,"x_max":1125,"o":"m 14 -1 l 14 911 l 1125 911 l 1125 622 l 369 622 l 369 511 l 1036 511 l 1036 244 l 369 244 l 369 -1 l 14 -1 z "},"g":{"ha":1266,"x_min":13,"x_max":1253,"o":"m 633 345 l 633 501 l 1253 501 l 1253 -22 l 1075 -22 l 1057 120 q 872 12 983 46 q 636 -22 762 -22 q 439 -8 528 -21 q 269 37 350 5 q 133 118 188 68 q 45 245 77 168 q 14 423 13 323 l 14 490 q 30 623 14 562 q 76 729 46 684 q 150 809 106 774 q 246 868 194 844 q 362 906 298 891 q 493 928 427 922 q 636 935 560 935 q 1253 568 1200 935 l 875 568 q 778 629 842 613 q 636 646 715 646 q 552 641 588 645 q 479 625 515 637 q 420 594 443 613 q 382 543 397 575 q 369 468 368 511 l 369 446 q 382 370 368 402 q 420 319 397 338 q 479 288 443 300 q 552 273 515 277 q 636 268 588 269 q 819 282 755 268 q 920 345 882 297 l 633 345 z "},"h":{"ha":1272,"x_min":14,"x_max":1259,"o":"m 903 312 l 369 312 l 369 1 l 14 1 l 14 912 l 369 912 l 369 601 l 903 601 l 903 912 l 1259 912 l 1259 1 l 903 1 l 903 312 z "},"i":{"ha":382,"x_min":14,"x_max":369,"o":"m 14 912 l 369 912 l 369 1 l 14 1 l 14 912 z "},"j":{"ha":1272,"x_min":13,"x_max":1258,"o":"m 903 445 l 903 911 l 1258 911 l 1258 422 q 635 -22 1258 -22 q 438 -9 528 -22 q 269 36 349 4 q 133 117 188 68 q 45 244 77 167 q 14 422 13 322 l 14 534 l 369 534 l 369 445 q 382 369 368 401 q 420 318 397 337 q 479 288 443 299 q 551 272 515 276 q 635 267 587 268 q 720 272 684 268 q 792 288 756 276 q 852 318 829 299 q 889 369 875 337 q 903 445 903 401 z "},"k":{"ha":1339,"x_min":14,"x_max":1325,"o":"m 524 312 l 369 312 l 369 1 l 14 1 l 14 912 l 369 912 l 369 601 l 524 601 l 859 912 l 1325 912 l 852 456 l 1325 1 l 859 1 l 524 312 z "},"l":{"ha":1094,"x_min":14,"x_max":1080,"o":"m 14 912 l 369 912 l 369 290 l 1080 290 l 1080 1 l 14 1 l 14 912 z "},"m":{"ha":1628,"x_min":14,"x_max":1614,"o":"m 14 1 l 14 912 l 458 912 l 814 456 l 1170 912 l 1614 912 l 1614 1 l 1259 1 l 1259 487 l 903 1 l 725 1 l 369 487 l 369 1 l 14 1 z "},"n":{"ha":1272,"x_min":14,"x_max":1259,"o":"m 903 429 l 903 912 l 1259 912 l 1259 1 l 859 1 l 369 557 l 369 1 l 14 1 l 14 912 l 503 912 l 903 429 z "},"o":{"ha":1272,"x_min":14,"x_max":1259,"o":"m 636 935 q 1258 490 1258 935 l 1258 423 q 1226 245 1259 323 q 1139 118 1194 168 q 1003 36 1084 68 q 833 -8 922 5 q 636 -22 744 -22 q 493 -15 560 -22 q 362 6 427 -9 q 246 45 298 22 q 150 104 194 68 q 76 184 106 139 q 30 290 46 230 q 14 423 14 351 l 14 490 q 30 623 14 562 q 76 729 46 684 q 150 809 106 774 q 246 868 194 844 q 362 906 298 891 q 493 928 427 922 q 636 935 560 935 m 903 446 l 903 468 q 889 543 903 511 q 852 594 875 575 q 793 625 829 613 q 720 641 757 637 q 636 646 684 645 q 552 641 588 645 q 479 625 515 637 q 420 594 443 613 q 382 543 397 575 q 369 468 368 511 l 369 446 q 382 370 368 402 q 420 319 397 338 q 479 288 443 300 q 552 272 515 276 q 636 267 588 268 q 720 272 684 268 q 793 288 757 276 q 852 319 829 300 q 889 370 875 338 q 903 446 903 402 z "},"p":{"ha":1250,"x_min":14,"x_max":1238,"o":"m 369 489 l 803 489 q 857 511 835 489 q 880 566 880 534 q 857 621 880 599 q 803 644 835 644 l 369 644 l 369 489 m 14 911 l 892 911 q 1064 865 984 911 q 1191 739 1144 819 q 1236 566 1238 659 q 1191 394 1238 474 q 1064 267 1144 314 q 892 222 984 220 l 369 222 l 369 -1 l 14 -1 l 14 911 z "},"q":{"ha":1272,"x_min":13,"x_max":1259,"o":"m 1259 489 l 1259 422 q 1073 69 1259 178 l 1259 -200 l 880 -200 l 766 -17 q 636 -22 699 -22 q 439 -9 528 -22 q 270 36 351 4 q 133 117 189 67 q 45 244 78 166 q 14 422 13 321 l 14 489 q 45 667 13 589 q 133 794 78 745 q 270 876 189 844 q 439 920 351 907 q 636 934 528 933 q 833 920 744 933 q 1003 876 922 907 q 1139 794 1084 844 q 1227 667 1194 745 q 1259 489 1259 589 m 636 267 q 720 271 684 267 q 793 287 757 275 q 852 318 829 299 q 889 369 875 337 q 903 444 903 401 l 903 467 q 889 542 903 510 q 852 593 875 574 q 793 624 829 612 q 721 640 757 635 q 636 644 684 644 q 552 640 588 644 q 479 624 515 635 q 420 593 443 612 q 382 542 397 574 q 369 467 368 510 l 369 444 q 382 369 368 401 q 420 318 397 337 q 479 287 443 299 q 552 271 515 275 q 636 267 588 267 z "},"r":{"ha":1250,"x_min":14,"x_max":1238,"o":"m 14 911 l 892 911 q 1064 866 984 912 q 1191 739 1144 819 q 1236 567 1238 659 q 1181 380 1236 464 q 1038 256 1127 297 l 1236 0 l 858 0 l 686 222 l 369 222 l 369 0 l 14 0 l 14 911 m 802 645 l 369 645 l 369 490 l 802 490 q 857 512 835 490 q 880 567 880 535 q 858 622 880 600 q 802 645 835 645 z "},"s":{"ha":1264,"x_min":13,"x_max":1251,"o":"m 386 612 q 446 575 386 585 q 640 559 505 566 q 966 528 861 548 q 1246 340 1218 480 q 1251 300 1251 321 q 1216 167 1251 224 q 1126 75 1182 110 q 987 17 1069 39 q 820 -14 905 -5 q 632 -22 734 -22 q 498 -19 557 -22 q 376 -7 439 -16 q 265 16 313 2 q 171 55 217 31 q 95 113 125 79 q 42 194 64 146 q 14 300 21 241 l 386 300 q 477 231 414 251 q 632 212 540 212 q 718 216 677 212 q 796 229 758 220 q 856 257 833 239 q 878 300 878 275 q 870 318 878 310 q 843 331 862 326 q 806 339 825 336 q 753 346 787 342 q 694 350 719 349 q 625 353 669 351 q 298 385 403 365 q 18 572 46 433 q 14 612 14 591 q 632 935 14 935 q 766 931 707 934 q 888 919 824 928 q 1000 897 952 911 q 1093 858 1047 882 q 1170 800 1139 833 q 1222 719 1200 767 q 1251 612 1244 671 l 878 612 q 788 681 850 662 q 632 701 726 701 q 546 697 586 701 q 468 684 507 693 q 408 656 430 674 q 386 612 386 637 z "},"t":{"ha":1227,"x_min":14,"x_max":1214,"o":"m 791 -1 l 436 -1 l 436 622 l 14 622 l 14 911 l 1214 911 l 1214 622 l 791 622 l 791 -1 z "},"u":{"ha":1272,"x_min":13,"x_max":1259,"o":"m 903 445 l 903 912 l 1259 912 l 1259 422 q 1227 244 1259 322 q 1139 117 1194 167 q 1003 36 1084 68 q 832 -9 922 4 q 636 -22 743 -22 q 440 -9 529 -22 q 270 36 351 4 q 133 117 189 68 q 45 244 78 167 q 14 422 13 322 l 14 912 l 369 912 l 369 445 q 382 369 368 401 q 420 318 397 337 q 479 288 443 299 q 552 272 515 276 q 636 267 588 268 q 721 272 684 268 q 793 288 757 276 q 852 318 829 299 q 889 369 875 337 q 903 445 903 401 z "},"v":{"ha":1383,"x_min":14,"x_max":1370,"o":"m 414 911 l 692 278 l 970 911 l 1370 911 l 903 -1 l 480 -1 l 14 911 l 414 911 z "},"w":{"ha":2072,"x_min":14,"x_max":2059,"o":"m 1447 334 l 1659 911 l 2059 911 l 1659 -1 l 1236 -1 l 1036 455 l 836 -1 l 414 -1 l 14 911 l 414 911 l 625 334 l 836 911 l 1236 911 l 1447 334 z "},"x":{"ha":1428,"x_min":14,"x_max":1414,"o":"m 714 645 l 970 911 l 1414 911 l 936 455 l 1414 -1 l 970 -1 l 714 266 l 458 -1 l 14 -1 l 492 455 l 14 911 l 458 911 l 714 645 z "},"y":{"ha":1405,"x_min":14,"x_max":1392,"o":"m 436 911 l 703 584 l 970 911 l 1392 911 l 880 311 l 880 -1 l 525 -1 l 525 311 l 14 911 l 436 911 z "},"z":{"ha":1205,"x_min":14,"x_max":1192,"o":"m 614 622 l 14 622 l 14 911 l 1192 911 l 1192 622 l 570 289 l 1192 289 l 1192 -1 l 14 -1 l 14 289 l 614 622 z "},"{":{"ha":783,"x_min":14,"x_max":770,"o":"m 236 174 l 236 218 q 197 313 236 274 q 102 352 158 352 l 14 352 l 14 452 l 14 552 l 102 552 q 197 591 158 552 q 236 686 236 630 l 236 730 q 328 950 235 857 q 547 1041 420 1043 l 770 1041 l 770 774 l 614 774 q 535 742 568 774 q 503 663 503 709 q 441 514 503 576 q 292 452 379 452 q 441 390 378 452 q 503 241 503 328 q 535 162 503 195 q 614 130 568 130 l 770 130 l 770 -137 l 547 -137 q 327 -46 420 -138 q 236 174 235 47 z "},"|":{"ha":382,"x_min":14,"x_max":369,"o":"m 14 1065 l 369 1065 l 369 -136 l 14 -136 l 14 1065 z "},"}":{"ha":783,"x_min":14,"x_max":770,"o":"m 547 218 l 547 174 q 456 -46 549 47 q 236 -137 363 -138 l 14 -137 l 14 130 l 169 130 q 248 162 215 130 q 280 241 280 195 q 342 390 280 328 q 492 452 404 452 q 342 514 404 452 q 280 663 280 576 q 248 742 280 709 q 169 774 215 774 l 14 774 l 14 1041 l 236 1041 q 392 1000 319 1042 q 506 886 464 958 q 547 730 548 813 l 547 686 q 586 591 547 631 q 680 552 625 552 l 770 552 l 770 452 l 770 352 l 680 352 q 586 313 625 352 q 547 218 547 274 z "},"¦":{"ha":382,"x_min":14,"x_max":369,"o":"m 369 598 l 14 598 l 14 1065 l 369 1065 l 369 598 m 14 331 l 369 331 l 369 -136 l 14 -136 l 14 331 z "},"©":{"ha":1330,"x_min":14,"x_max":1316,"o":"m 825 403 l 833 403 l 1055 403 q 924 224 1041 283 q 833 191 881 203 q 665 170 745 170 q 498 191 586 170 q 412 222 450 203 q 341 270 373 241 q 292 339 310 298 q 275 429 275 379 l 275 467 q 408 671 275 606 q 498 705 450 693 q 665 726 586 726 q 833 705 745 726 q 981 633 920 684 q 1055 493 1044 582 l 833 493 l 825 493 q 776 538 810 524 q 665 558 728 558 q 610 554 636 558 q 556 539 583 549 q 514 507 530 528 q 498 454 498 485 l 498 441 q 555 357 498 385 q 665 338 602 338 q 825 403 793 338 m 907 113 l 908 113 q 1030 162 977 133 q 1183 413 1183 243 l 1183 483 q 1161 600 1181 553 q 908 783 1105 728 q 665 814 792 814 q 422 783 538 814 l 422 783 l 421 783 q 300 734 355 764 q 147 483 147 652 l 147 413 q 148 391 148 396 q 151 363 148 385 q 158 328 153 340 q 172 292 162 315 q 194 252 181 268 q 228 213 207 235 q 276 175 250 191 q 340 142 302 159 q 422 113 377 125 q 665 81 538 81 q 907 113 792 81 m 1095 45 q 944 -15 1025 7 q 665 -52 813 -52 q 386 -15 517 -52 q 271 27 324 2 q 169 89 217 52 q 87 172 121 126 q 33 280 53 218 q 14 413 14 342 l 14 483 q 73 703 14 611 q 235 850 132 794 q 386 911 304 888 q 665 948 522 948 q 944 911 808 948 q 1087 855 1023 890 q 1204 769 1152 820 q 1287 645 1257 718 q 1316 483 1316 572 l 1316 413 q 1257 193 1316 285 q 1095 45 1198 102 z "},"®":{"ha":1330,"x_min":14,"x_max":1316,"o":"m 529 465 l 758 465 q 788 477 776 465 q 801 505 801 488 q 788 533 801 522 q 758 545 776 545 l 529 545 l 529 465 m 998 505 q 968 410 998 452 q 888 345 939 368 l 998 214 l 789 214 l 699 328 l 529 328 l 529 214 l 332 214 l 332 328 l 332 465 l 332 545 l 332 682 l 529 682 l 807 682 q 942 629 886 682 q 998 505 998 577 m 1183 413 l 1183 483 q 1161 600 1181 553 q 908 783 1105 728 q 665 814 792 814 q 422 783 538 814 l 422 783 l 421 783 q 300 734 355 764 q 147 483 147 652 l 147 413 q 148 391 148 396 q 151 363 148 385 q 158 328 153 340 q 172 292 162 315 q 194 252 181 268 q 228 213 207 235 q 276 175 250 191 q 340 142 302 159 q 422 113 377 125 q 665 81 538 81 q 907 113 792 81 l 908 113 l 909 113 q 1030 162 975 132 q 1183 413 1183 243 m 1316 483 l 1316 413 q 1257 193 1316 285 q 1095 45 1198 102 q 944 -15 1025 7 q 665 -52 813 -52 q 386 -15 517 -52 q 271 27 324 2 q 169 89 217 52 q 87 172 121 126 q 33 280 53 218 q 14 413 14 342 l 14 483 q 73 703 14 611 q 235 850 132 794 q 386 911 304 888 q 665 948 522 948 q 944 911 808 948 q 1087 855 1023 890 q 1204 769 1152 820 q 1287 645 1257 718 q 1316 483 1316 572 z "},"±":{"ha":1094,"x_min":14,"x_max":1080,"o":"m 14 245 l 1080 245 l 1080 0 l 14 0 l 14 245 m 703 334 l 391 334 l 391 511 l 14 511 l 14 756 l 391 756 l 391 934 l 703 934 l 703 756 l 1080 756 l 1080 511 l 703 511 l 703 334 z "},"×":{"ha":1105,"x_min":14,"x_max":1091,"o":"m 14 265 l 307 456 l 14 647 l 159 871 l 552 615 l 946 871 l 1091 647 l 798 456 l 1091 265 l 946 41 l 552 297 l 159 41 l 14 265 z "},"÷":{"ha":1094,"x_min":14,"x_max":1080,"o":"m 1080 325 l 14 325 l 14 591 l 1080 591 l 1080 325 m 703 236 l 703 14 l 391 14 l 391 236 l 703 236 m 391 680 l 391 903 l 703 903 l 703 680 l 391 680 z "},"™":{"ha":1628,"x_min":14,"x_max":1614,"o":"m 239 758 l 14 758 l 14 912 l 654 912 l 654 758 l 429 758 l 429 426 l 239 426 l 239 758 m 1614 426 l 1424 426 l 1424 685 l 1235 426 l 1140 426 l 950 685 l 950 426 l 760 426 l 760 912 l 998 912 l 1187 669 l 1377 912 l 1614 912 l 1614 426 z "},"−":{"ha":1094,"x_min":14,"x_max":1080,"o":"m 14 589 l 1080 589 l 1080 323 l 14 323 l 14 589 z "},"≤":{"ha":1094,"x_min":14,"x_max":1080,"o":"m 14 722 l 1080 934 l 1080 722 l 576 623 l 1080 534 l 1080 322 l 14 511 l 14 722 m 14 245 l 1080 245 l 1080 0 l 14 0 l 14 245 z "},"≥":{"ha":1094,"x_min":14,"x_max":1080,"o":"m 14 722 l 14 934 l 1080 722 l 1080 511 l 14 322 l 14 534 l 517 623 l 14 722 m 14 0 l 14 245 l 1080 245 l 1080 0 l 14 0 z "}}}
